<svg id="logo" xmlns="http://www.w3.org/2000/svg" viewBox="0 0 60.4 23.26" width="150">
					<defs>
					<style>
						.cls-1 {
						fill: #ed8e44;
						}

						.cls-2 {
						fill: #ee2f44;
						}
					</style>
					</defs>
					<circle class="cls-2" cx="50.65" cy="13.51" r="9.75"></circle>
					<path class="cls-1" d="m0,6.93l1.29-.12c0,.47.23.94.35,1.29.23.35.59.59,1.06.82s.94.23,1.53.23c.47,0,.94-.12,1.41-.23.35-.12.7-.35.82-.59.23-.23.23-.59.23-.82,0-.35-.12-.59-.23-.82-.23-.23-.47-.47-.94-.59-.23-.12-.82-.23-1.76-.47-.94-.23-1.53-.47-2-.59-.47-.23-.82-.59-1.06-.94s-.35-.82-.35-1.29.12-.94.47-1.41c.23-.47.7-.7,1.29-.94S3.29.12,3.99.12s1.41.12,2,.35,1.06.59,1.29,1.06c.35.47.47.94.47,1.64l-1.29.12c-.12-.59-.35-1.17-.7-1.41-.35-.35-.94-.47-1.76-.47s-1.41.12-1.76.47-.59.7-.59,1.06.12.7.35.94c.23.23.94.47,2,.7s1.88.47,2.23.59c.59.23,1.06.59,1.29,1.06.23.47.47.94.47,1.41,0,.59-.12,1.06-.47,1.53-.35.47-.7.82-1.29,1.06-.59.23-1.17.35-2,.35-.94,0-1.64-.12-2.35-.35-.59-.23-1.06-.7-1.41-1.17-.23-.82-.47-1.41-.47-2.11Z"></path>
					<path class="cls-1" d="m14.56,10.22v-1.06c-.59.82-1.29,1.17-2.35,1.17-.47,0-.82-.12-1.17-.23s-.59-.35-.82-.59-.35-.59-.35-.94c0-.23-.12-.59-.12-1.17V2.82h1.29v3.99c0,.7,0,1.06.12,1.29.12.35.23.59.47.7.23.23.59.23.94.23s.7-.12,1.06-.23.59-.47.7-.82c.12-.35.23-.82.23-1.41v-3.88h1.17v7.28l-1.17.23h0Z"></path>
					<path class="cls-1" d="m17.62,10.22V2.94h1.06v1.06c.59-.82,1.29-1.17,2.35-1.17.47,0,.82.12,1.17.23s.59.35.82.59.35.59.35.94c0,.23.12.59.12,1.17v4.46h-1.17v-4.46c0-.47,0-.94-.12-1.17s-.23-.47-.47-.59c-.23-.12-.59-.23-.82-.23-.59,0-.94.12-1.41.47-.35.35-.59.94-.59,1.88v3.99l-1.29.12h0Z"></path>
					<path class="cls-1" d="m30.18,10.22v-.94c-.47.7-1.17,1.06-2,1.06-.59,0-1.17-.12-1.64-.47s-.82-.82-1.17-1.29-.35-1.17-.35-2c0-.7.12-1.41.35-2s.59-1.06,1.06-1.41c.47-.35,1.06-.47,1.64-.47.47,0,.82.12,1.17.23s.59.47.82.7V0h1.17v10.1h-1.06v.12Zm-3.99-3.64c0,.94.23,1.64.59,2.11s.82.7,1.41.7,1.06-.23,1.41-.7c.35-.47.59-1.06.59-2,0-1.06-.23-1.76-.59-2.23s-.82-.7-1.41-.7-1.06.23-1.41.7-.59,1.06-.59,2.11h0Z"></path>
					<path class="cls-1" d="m32.77,6.58c0-1.29.35-2.35,1.17-3.05.59-.59,1.41-.82,2.35-.82,1.06,0,1.76.35,2.47.94s.94,1.53.94,2.7c0,.94-.12,1.64-.47,2.23-.23.59-.7.94-1.17,1.29s-1.17.47-1.76.47c-1.06,0-1.88-.35-2.47-.94-.7-.7-1.06-1.64-1.06-2.82Zm1.29,0c0,.94.23,1.64.59,2.11.47.47.94.7,1.53.7s1.17-.23,1.53-.7.59-1.17.59-2.11-.23-1.64-.59-2.11c-.47-.47-.94-.7-1.53-.7s-1.17.23-1.53.7c-.35.47-.59,1.17-.59,2.11h0Z"></path>
					<path class="cls-1" d="m42.4,10.22l-2.23-7.28h1.29l1.17,4.23.47,1.53c0-.12.12-.59.35-1.53l1.17-4.23h1.29l1.06,4.23.35,1.41.47-1.41,1.29-4.23h1.17l-2.35,7.28h-1.29l-1.17-4.35-.23-1.29-1.53,5.64h-1.29Z"></path>
					<path class="cls-1" d="m51.2,10.22V2.94h1.17v1.06c.59-.82,1.29-1.17,2.35-1.17.47,0,.82.12,1.17.23s.59.35.82.59c.23.23.35.47.35.82,0,.23.12.59.12,1.17v4.46h-1.17v-4.46c0-.47,0-.94-.12-1.17s-.23-.47-.47-.59c-.35,0-.7-.12-.94-.12-.59,0-.94.12-1.41.47-.35.35-.59.94-.59,1.88v3.99l-1.29.12h0Z"></path>
					<path d="m8.26,19.18c0,.6-.12,1.2-.48,1.68s-.84.84-1.44,1.2c-.6.24-1.32.36-2.15.36-1.08,0-1.92-.24-2.51-.6-.48-.24-.84-.6-1.2-1.08-.24-.48-.48-.96-.48-1.32,0-.24.12-.48.24-.6.12-.24.36-.24.72-.24.24,0,.36.12.6.24s.24.36.36.6c.12.36.24.6.36.84s.36.36.6.6.6.24,1.08.24c.6,0,1.08-.12,1.56-.48.36-.24.6-.6.6-1.08,0-.36-.12-.6-.36-.84s-.48-.36-.84-.48-.72-.24-1.32-.36c-.72-.12-1.32-.36-1.8-.6s-.96-.6-1.2-.96-.48-.96-.48-1.44.12-1.08.48-1.56c.36-.48.72-.72,1.32-1.08.6-.24,1.32-.36,2.03-.36.6,0,1.2.12,1.68.24s.84.36,1.2.6.48.48.72.84c.12.24.24.6.24.84s-.12.48-.24.72c-.24.24-.36.24-.6.24s-.48-.12-.6-.12c-.12-.12-.24-.36-.36-.6-.24-.36-.36-.72-.72-.96-.24-.24-.72-.36-1.2-.36-.6,0-.96.12-1.32.36-.36.24-.48.48-.48.84,0,.24,0,.36.12.48s.24.24.48.36c.24.12.36.24.6.24s.6.12.96.24c.6.12,1.08.24,1.56.48.48.12.84.36,1.2.6s.6.48.72.84.48.96.36,1.44h0Z"></path>
					<path d="m10.05,14.88h.24v-1.92c0-.12,0-.36.12-.48s.12-.24.36-.36c.12-.12.24-.12.48-.12s.48.12.6.24.24.24.24.48v2.03h.72c.24,0,.48.12.6.24.24.24.24.36.24.6s-.12.48-.24.6-.48.12-.84.12h-.36v4.19c0,.12.12.24.12.36.12.12.24.12.48.12h.96c.12,0,.24,0,.48.24s.24.24.24.48c0,.36-.12.6-.48.72s-.84.24-1.44.24-1.08-.12-1.32-.24c-.36-.24-.48-.48-.6-.84-.12-.36-.12-.84-.12-1.44v-3.71h-.48c-.24,0-.48-.12-.6-.24s-.24-.24-.24-.48.12-.36.24-.48c.12-.24.24-.36.6-.36h0Z"></path>
					<path d="m19.99,21.46v-.24c-.24.24-.48.6-.72.72s-.48.36-.84.48c-.24.12-.6.12-1.08.12s-.84-.12-1.2-.24c-.36-.24-.6-.48-.84-.84-.24-.36-.36-.96-.36-1.8v-3.83c0-.36.12-.72.24-.84.12-.24.36-.24.72-.24s.48.12.72.24c.12.24.24.48.24.84v3.11c0,.48,0,.84.12,1.08.12.24.24.6.36.72s.48.24.84.24.6-.12.96-.24c.24-.24.48-.48.6-.72s.12-.84.12-1.8v-2.39c0-.36.12-.6.24-.84s.36-.24.72-.24.48.12.72.24.24.48.24.84v5.51c0,.36-.12.6-.24.84s-.36.24-.6.24-.48-.12-.6-.24-.36-.48-.36-.72h0Z"></path>
					<path d="m28.96,21.46v-.24c-.24.24-.48.6-.72.72s-.48.36-.84.48c-.24.12-.6.12-.96.12-.48,0-.84-.12-1.32-.24s-.72-.48-1.08-.84-.48-.72-.6-1.32-.24-1.08-.24-1.56c0-1.2.24-2.15.84-2.75.6-.72,1.32-.96,2.27-.96.6,0,1.08.12,1.44.24s.72.48,1.08.84v-2.87c0-.36.12-.72.24-.84s.36-.24.72-.24.48.12.72.24.24.48.24.84v8.5c0,.36-.12.6-.24.84s-.36.24-.6.24-.48-.12-.6-.24-.36-.6-.36-.96h0Zm-3.83-2.87c0,.48.12.96.24,1.32s.36.6.6.84.6.24.96.24.6-.12.96-.24.48-.48.72-.84.24-.84.24-1.32-.12-.96-.24-1.32c-.12-.36-.36-.6-.72-.84s-.6-.24-.96-.24-.6.12-.96.24-.48.48-.6.84-.24.84-.24,1.32h0Z"></path>
					<path d="m33.63,13.8c-.24,0-.48-.12-.72-.24-.24-.12-.24-.36-.24-.72,0-.24.12-.48.24-.72.24-.12.48-.24.72-.24s.48.12.6.24c.24.12.24.36.24.72s-.12.48-.24.72c-.12.12-.36.24-.6.24Zm.96,2.03v5.51c0,.36-.12.72-.24.84s-.48.24-.72.24-.48-.12-.72-.24-.24-.48-.24-.84v-5.51c0-.36.12-.72.24-.84s.36-.24.72-.24.48.12.72.24.24.48.24.84h0Z"></path>
					<path d="m43.69,18.59c0,.6-.12,1.08-.24,1.56s-.48.96-.72,1.2-.72.6-1.2.84c-.48.24-.96.24-1.56.24s-1.08-.12-1.56-.24-.84-.48-1.2-.84-.6-.72-.72-1.2-.24-.96-.24-1.56.12-1.08.24-1.56.48-.96.72-1.2c.36-.36.72-.6,1.2-.84s.96-.24,1.56-.24,1.08.12,1.56.24c.48.12.84.48,1.2.84.36.36.6.72.72,1.2s.24.96.24,1.56h0Zm-1.92,0c0-.72-.12-1.44-.48-1.8-.36-.48-.84-.6-1.44-.6-.36,0-.72.12-.96.24s-.48.48-.6.84c-.12.36-.24.84-.24,1.32s.12.96.24,1.32.36.6.6.84.6.24.96.24c.6,0,1.08-.24,1.44-.6.36-.36.48-.96.48-1.8h0Z"></path>
				</svg>